<?xml version="1.0" encoding="UTF-8" standalone="yes"?><svg xmlns="http://www.w3.org/2000/svg" xmlns:xlink="http://www.w3.org/1999/xlink" height="540.8px" style="width:672px;height:540px;" version="1.1" viewBox="0 0 672 540" width="672px"><defs><filter height="300%" id="f1" width="300%" x="-1" y="-1"><feGaussianBlur result="blurOut" stdDeviation="1.600000023841858"/><feColorMatrix in="blurOut" result="blurOut2" type="matrix" values="0 0 0 0 0 0 0 0 0 0 0 0 0 0 0 0 0 0 .4 0"/><feOffset dx="3.200000047683716" dy="3.200000047683716" in="blurOut2" result="blurOut3"/><feBlend in="SourceGraphic" in2="blurOut3" mode="normal"/></filter></defs><g><rect fill="#FFFFFF" filter="url(#f1)" height="440.7938" style="stroke: #A80036; stroke-width: 0.800000011920929;" width="8" x="67.2" y="55.4375"/><rect fill="#FFFFFF" filter="url(#f1)" height="394.1813" style="stroke: #A80036; stroke-width: 0.800000011920929;" width="8" x="71.2" y="85.1438"/><rect fill="#FFFFFF" filter="url(#f1)" height="97.9188" style="stroke: #A80036; stroke-width: 0.800000011920929;" width="8" x="75.2" y="118.85"/><rect fill="#FFFFFF" filter="url(#f1)" height="22.4" style="stroke: #A80036; stroke-width: 0.800000011920929;" width="8" x="75.2" y="456.925"/><rect fill="#FFFFFF" filter="url(#f1)" height="24" style="stroke: #A80036; stroke-width: 0.800000011920929;" width="8" x="278.4" y="146.1563"/><rect fill="#FFFFFF" filter="url(#f1)" height="23.3063" style="stroke: #A80036; stroke-width: 0.800000011920929;" width="8" x="278.4" y="193.4625"/><rect fill="#FFFFFF" filter="url(#f1)" height="24" style="stroke: #A80036; stroke-width: 0.800000011920929;" width="8" x="636.4" y="309.9938"/><line style="stroke: #A80036; stroke-width: 0.800000011920929; stroke-dasharray: 5.0,5.0;" x1="71.2" x2="71.2" y1="30.6375" y2="510.6313"/><line style="stroke: #A80036; stroke-width: 0.800000011920929; stroke-dasharray: 5.0,5.0;" x1="282" x2="282" y1="30.6375" y2="510.6313"/><line style="stroke: #A80036; stroke-width: 0.800000011920929; stroke-dasharray: 5.0,5.0;" x1="386" x2="386" y1="30.6375" y2="510.6313"/><line style="stroke: #A80036; stroke-width: 0.800000011920929; stroke-dasharray: 5.0,5.0;" x1="522.8" x2="522.8" y1="30.6375" y2="510.6313"/><line style="stroke: #A80036; stroke-width: 0.800000011920929; stroke-dasharray: 5.0,5.0;" x1="640.4" x2="640.4" y1="30.6375" y2="510.6313"/><rect fill="#FEFECE" filter="url(#f1)" height="24.2375" style="stroke: #A80036; stroke-width: 1.2000000178813934;" width="80" x="29.6" y="2.4"/><text fill="#000000" font-family="sans-serif" font-size="11.2" lengthAdjust="spacingAndGlyphs" textLength="68.8" x="35.2" y="18.3961">VAppService</text><rect fill="#FEFECE" filter="url(#f1)" height="24.2375" style="stroke: #A80036; stroke-width: 1.2000000178813934;" width="80" x="29.6" y="509.8313"/><text fill="#000000" font-family="sans-serif" font-size="11.2" lengthAdjust="spacingAndGlyphs" textLength="68.8" x="35.2" y="525.8274">VAppService</text><rect fill="#FEFECE" filter="url(#f1)" height="24.2375" style="stroke: #A80036; stroke-width: 1.2000000178813934;" width="93.6" x="234" y="2.4"/><text fill="#000000" font-family="sans-serif" font-size="11.2" lengthAdjust="spacingAndGlyphs" textLength="82.4" x="239.6" y="18.3961">PackageParser</text><rect fill="#FEFECE" filter="url(#f1)" height="24.2375" style="stroke: #A80036; stroke-width: 1.2000000178813934;" width="93.6" x="234" y="509.8313"/><text fill="#000000" font-family="sans-serif" font-size="11.2" lengthAdjust="spacingAndGlyphs" textLength="82.4" x="239.6" y="525.8274">PackageParser</text><rect fill="#FEFECE" filter="url(#f1)" height="24.2375" style="stroke: #A80036; stroke-width: 1.2000000178813934;" width="92" x="338.8" y="2.4"/><text fill="#000000" font-family="sans-serif" font-size="11.2" lengthAdjust="spacingAndGlyphs" textLength="80.8" x="344.4" y="18.3961">AppFileSystem</text><rect fill="#FEFECE" filter="url(#f1)" height="24.2375" style="stroke: #A80036; stroke-width: 1.2000000178813934;" width="92" x="338.8" y="509.8313"/><text fill="#000000" font-family="sans-serif" font-size="11.2" lengthAdjust="spacingAndGlyphs" textLength="80.8" x="344.4" y="525.8274">AppFileSystem</text><rect fill="#FEFECE" filter="url(#f1)" height="24.2375" style="stroke: #A80036; stroke-width: 1.2000000178813934;" width="159.2" x="442" y="2.4"/><text fill="#000000" font-family="sans-serif" font-size="11.2" lengthAdjust="spacingAndGlyphs" textLength="148" x="447.6" y="18.3961">NativeLibraryHelperCompat</text><rect fill="#FEFECE" filter="url(#f1)" height="24.2375" style="stroke: #A80036; stroke-width: 1.2000000178813934;" width="159.2" x="442" y="509.8313"/><text fill="#000000" font-family="sans-serif" font-size="11.2" lengthAdjust="spacingAndGlyphs" textLength="148" x="447.6" y="525.8274">NativeLibraryHelperCompat</text><rect fill="#FEFECE" filter="url(#f1)" height="24.2375" style="stroke: #A80036; stroke-width: 1.2000000178813934;" width="52.8" x="612.4" y="2.4"/><text fill="#000000" font-family="sans-serif" font-size="11.2" lengthAdjust="spacingAndGlyphs" textLength="41.6" x="618" y="18.3961">AppInfo</text><rect fill="#FEFECE" filter="url(#f1)" height="24.2375" style="stroke: #A80036; stroke-width: 1.2000000178813934;" width="52.8" x="612.4" y="509.8313"/><text fill="#000000" font-family="sans-serif" font-size="11.2" lengthAdjust="spacingAndGlyphs" textLength="41.6" x="618" y="525.8274">AppInfo</text><rect fill="#FFFFFF" filter="url(#f1)" height="440.7938" style="stroke: #A80036; stroke-width: 0.800000011920929;" width="8" x="67.2" y="55.4375"/><rect fill="#FFFFFF" filter="url(#f1)" height="394.1813" style="stroke: #A80036; stroke-width: 0.800000011920929;" width="8" x="71.2" y="85.1438"/><rect fill="#FFFFFF" filter="url(#f1)" height="97.9188" style="stroke: #A80036; stroke-width: 0.800000011920929;" width="8" x="75.2" y="118.85"/><rect fill="#FFFFFF" filter="url(#f1)" height="22.4" style="stroke: #A80036; stroke-width: 0.800000011920929;" width="8" x="75.2" y="456.925"/><rect fill="#FFFFFF" filter="url(#f1)" height="24" style="stroke: #A80036; stroke-width: 0.800000011920929;" width="8" x="278.4" y="146.1563"/><rect fill="#FFFFFF" filter="url(#f1)" height="23.3063" style="stroke: #A80036; stroke-width: 0.800000011920929;" width="8" x="278.4" y="193.4625"/><rect fill="#FFFFFF" filter="url(#f1)" height="24" style="stroke: #A80036; stroke-width: 0.800000011920929;" width="8" x="636.4" y="309.9938"/><polygon fill="#A80036" points="57.6,52.2375,65.6,55.4375,57.6,58.6375,60.8,55.4375" style="stroke: #A80036; stroke-width: 0.800000011920929;"/><line style="stroke: #A80036; stroke-width: 0.800000011920929;" x1="2.4" x2="62.4" y1="55.4375" y2="55.4375"/><text fill="#000000" font-family="sans-serif" font-size="10.4" lengthAdjust="spacingAndGlyphs" textLength="49.6" x="8" y="51.491">installApp</text><line style="stroke: #A80036; stroke-width: 0.800000011920929;" x1="75.2" x2="112.8" y1="74.85" y2="74.85"/><line style="stroke: #A80036; stroke-width: 0.800000011920929;" x1="112.8" x2="112.8" y1="74.85" y2="85.25"/><line style="stroke: #A80036; stroke-width: 0.800000011920929;" x1="80" x2="112.8" y1="85.25" y2="85.25"/><polygon fill="#A80036" points="88,82.05,80,85.25,88,88.45,84.8,85.25" style="stroke: #A80036; stroke-width: 0.800000011920929;"/><text fill="#000000" font-family="sans-serif" font-size="10.4" lengthAdjust="spacingAndGlyphs" textLength="29.6" x="84.8" y="70.7973">install</text><line style="stroke: #A80036; stroke-width: 0.800000011920929;" x1="79.2" x2="116.8" y1="108.5563" y2="108.5563"/><line style="stroke: #A80036; stroke-width: 0.800000011920929;" x1="116.8" x2="116.8" y1="108.5563" y2="118.9563"/><line style="stroke: #A80036; stroke-width: 0.800000011920929;" x1="84" x2="116.8" y1="118.9563" y2="118.9563"/><polygon fill="#A80036" points="92,115.7563,84,118.9563,92,122.1563,88.8,118.9563" style="stroke: #A80036; stroke-width: 0.800000011920929;"/><text fill="#000000" font-family="sans-serif" font-size="10.4" lengthAdjust="spacingAndGlyphs" textLength="72" x="88.8" y="104.5035">parsePackage</text><polygon fill="#A80036" points="268.8,142.9563,276.8,146.1563,268.8,149.3563,272,146.1563" style="stroke: #A80036; stroke-width: 0.800000011920929;"/><line style="stroke: #A80036; stroke-width: 0.800000011920929;" x1="83.2" x2="273.6" y1="146.1563" y2="146.1563"/><text fill="#000000" font-family="sans-serif" font-size="10.4" lengthAdjust="spacingAndGlyphs" textLength="180" x="88.8" y="142.2098">new PackageParser(apk.getPath());</text><polygon fill="#A80036" points="268.8,190.2625,276.8,193.4625,268.8,196.6625,272,193.4625" style="stroke: #A80036; stroke-width: 0.800000011920929;"/><line style="stroke: #A80036; stroke-width: 0.800000011920929;" x1="83.2" x2="273.6" y1="193.4625" y2="193.4625"/><text fill="#000000" font-family="sans-serif" font-size="10.4" lengthAdjust="spacingAndGlyphs" textLength="117.6" x="88.8" y="189.516">parsePackage（apk,...)</text><polygon fill="#A80036" points="88,213.5688,80,216.7688,88,219.9688,84.8,216.7688" style="stroke: #A80036; stroke-width: 0.800000011920929;"/><line style="stroke: #A80036; stroke-width: 0.800000011920929; stroke-dasharray: 2.0,2.0;" x1="83.2" x2="281.6" y1="216.7688" y2="216.7688"/><text fill="#000000" font-family="sans-serif" font-size="10.4" lengthAdjust="spacingAndGlyphs" textLength="144" x="92.8" y="212.8223">pkg:PackageParser.Package</text><polygon fill="#A80036" points="376.8,236.875,384.8,240.075,376.8,243.275,380,240.075" style="stroke: #A80036; stroke-width: 0.800000011920929;"/><line style="stroke: #A80036; stroke-width: 0.800000011920929;" x1="79.2" x2="381.6" y1="240.075" y2="240.075"/><text fill="#000000" font-family="sans-serif" font-size="10.4" lengthAdjust="spacingAndGlyphs" textLength="186.4" x="84.8" y="236.1285">getAppLibFolder(pkg.packageName)</text><polygon fill="#A80036" points="513.6,260.1813,521.6,263.3813,513.6,266.5813,516.8,263.3813" style="stroke: #A80036; stroke-width: 0.800000011920929;"/><line style="stroke: #A80036; stroke-width: 0.800000011920929;" x1="79.2" x2="518.4" y1="263.3813" y2="263.3813"/><text fill="#000000" font-family="sans-serif" font-size="10.4" lengthAdjust="spacingAndGlyphs" textLength="97.6" x="84.8" y="259.4348">copyNativeBinaries</text><polygon fill="#A80036" points="630.8,283.4875,638.8,286.6875,630.8,289.8875,634,286.6875" style="stroke: #A80036; stroke-width: 0.800000011920929;"/><line style="stroke: #A80036; stroke-width: 0.800000011920929;" x1="79.2" x2="635.6" y1="286.6875" y2="286.6875"/><text fill="#000000" font-family="sans-serif" font-size="10.4" lengthAdjust="spacingAndGlyphs" textLength="69.6" x="84.8" y="282.741">new AppInfo()</text><polygon fill="#A80036" points="88,306.7938,80,309.9938,88,313.1938,84.8,309.9938" style="stroke: #A80036; stroke-width: 0.800000011920929;"/><line style="stroke: #A80036; stroke-width: 0.800000011920929; stroke-dasharray: 2.0,2.0;" x1="83.2" x2="635.6" y1="309.9938" y2="309.9938"/><text fill="#000000" font-family="sans-serif" font-size="10.4" lengthAdjust="spacingAndGlyphs" textLength="79.2" x="92.8" y="306.0473">appInfo:AppInfo</text><polygon fill="#A80036" points="376.8,354.1,384.8,357.3,376.8,360.5,380,357.3" style="stroke: #A80036; stroke-width: 0.800000011920929;"/><line style="stroke: #A80036; stroke-width: 0.800000011920929;" x1="79.2" x2="381.6" y1="357.3" y2="357.3"/><text fill="#000000" font-family="sans-serif" font-size="10.4" lengthAdjust="spacingAndGlyphs" textLength="111.2" x="84.8" y="353.3535">getAppPackageFolder</text><polygon fill="#A80036" points="376.8,377.4063,384.8,380.6063,376.8,383.8063,380,380.6063" style="stroke: #A80036; stroke-width: 0.800000011920929;"/><line style="stroke: #A80036; stroke-width: 0.800000011920929;" x1="79.2" x2="381.6" y1="380.6063" y2="380.6063"/><text fill="#000000" font-family="sans-serif" font-size="10.4" lengthAdjust="spacingAndGlyphs" textLength="82.4" x="84.8" y="376.6598">getAppLibFolder</text><polygon fill="#A80036" points="376.8,400.7125,384.8,403.9125,376.8,407.1125,380,403.9125" style="stroke: #A80036; stroke-width: 0.800000011920929;"/><line style="stroke: #A80036; stroke-width: 0.800000011920929;" x1="79.2" x2="381.6" y1="403.9125" y2="403.9125"/><text fill="#000000" font-family="sans-serif" font-size="10.4" lengthAdjust="spacingAndGlyphs" textLength="124" x="84.8" y="399.966">getAppDVMCacheFolder</text><polygon fill="#A80036" points="376.8,424.0188,384.8,427.2188,376.8,430.4188,380,427.2188" style="stroke: #A80036; stroke-width: 0.800000011920929;"/><line style="stroke: #A80036; stroke-width: 0.800000011920929;" x1="79.2" x2="381.6" y1="427.2188" y2="427.2188"/><text fill="#000000" font-family="sans-serif" font-size="10.4" lengthAdjust="spacingAndGlyphs" textLength="100" x="84.8" y="423.2723">getAppCacheFolder</text><line style="stroke: #A80036; stroke-width: 0.800000011920929;" x1="83.2" x2="116.8" y1="450.6313" y2="450.6313"/><line style="stroke: #A80036; stroke-width: 0.800000011920929;" x1="116.8" x2="116.8" y1="450.6313" y2="461.0313"/><line style="stroke: #A80036; stroke-width: 0.800000011920929;" x1="84" x2="116.8" y1="461.0313" y2="461.0313"/><polygon fill="#A80036" points="92,457.8313,84,461.0313,92,464.2313,88.8,461.0313" style="stroke: #A80036; stroke-width: 0.800000011920929;"/><text fill="#000000" font-family="sans-serif" font-size="10.4" lengthAdjust="spacingAndGlyphs" textLength="90.4" x="88.8" y="446.5785">notifyAppInstalled</text><polygon fill="#FBFB77" filter="url(#f1)" points="188.8,438.925,188.8,458.925,432,458.925,432,446.925,424,438.925,188.8,438.925" style="stroke: #A80036; stroke-width: 0.800000011920929;"/><line style="stroke: #A80036; stroke-width: 0.800000011920929;" x1="424" x2="424" y1="438.925" y2="446.925"/><line style="stroke: #A80036; stroke-width: 0.800000011920929;" x1="432" x2="424" y1="446.925" y2="446.925"/><text fill="#000000" font-family="sans-serif" font-size="10.4" lengthAdjust="spacingAndGlyphs" textLength="226.4" x="193.6" y="452.5785">getBroadcastItem(N).onNewApp(pkgName);</text><polygon fill="#A80036" points="11.2,493.0313,3.2,496.2313,11.2,499.4313,8,496.2313" style="stroke: #A80036; stroke-width: 0.800000011920929;"/><line style="stroke: #A80036; stroke-width: 0.800000011920929;" x1="6.4" x2="70.4" y1="496.2313" y2="496.2313"/></g></svg>