<?xml version="1.0" encoding="UTF-8" standalone="yes"?><svg xmlns="http://www.w3.org/2000/svg" xmlns:xlink="http://www.w3.org/1999/xlink" height="845.6px" style="width:1192px;height:845px;" version="1.1" viewBox="0 0 1192 845" width="1192.8px"><defs><filter height="300%" id="f1" width="300%" x="-1" y="-1"><feGaussianBlur result="blurOut" stdDeviation="1.600000023841858"/><feColorMatrix in="blurOut" result="blurOut2" type="matrix" values="0 0 0 0 0 0 0 0 0 0 0 0 0 0 0 0 0 0 .4 0"/><feOffset dx="3.200000047683716" dy="3.200000047683716" in="blurOut2" result="blurOut3"/><feBlend in="SourceGraphic" in2="blurOut3" mode="normal"/></filter></defs><g><rect fill="#FFFFFF" filter="url(#f1)" height="728.4688" style="stroke: #A80036; stroke-width: 0.800000011920929;" width="8" x="58.4" y="71.5438"/><rect fill="#FFFFFF" filter="url(#f1)" height="24" style="stroke: #A80036; stroke-width: 0.800000011920929;" width="8" x="173.6" y="94.85"/><rect fill="#FFFFFF" filter="url(#f1)" height="611.2438" style="stroke: #A80036; stroke-width: 0.800000011920929;" width="8" x="272.4" y="188.7688"/><rect fill="#FFFFFF" filter="url(#f1)" height="587.9375" style="stroke: #A80036; stroke-width: 0.800000011920929;" width="8" x="407.6" y="212.075"/><rect fill="#FFFFFF" filter="url(#f1)" height="558.2313" style="stroke: #A80036; stroke-width: 0.800000011920929;" width="8" x="411.6" y="241.7813"/><rect fill="#FFFFFF" filter="url(#f1)" height="333.9688" style="stroke: #A80036; stroke-width: 0.800000011920929;" width="8" x="415.6" y="275.4875"/><rect fill="#FFFFFF" filter="url(#f1)" height="22.4" style="stroke: #A80036; stroke-width: 0.800000011920929;" width="8" x="419.6" y="309.1938"/><rect fill="#FFFFFF" filter="url(#f1)" height="242.5563" style="stroke: #A80036; stroke-width: 0.800000011920929;" width="8" x="419.6" y="366.9"/><rect fill="#FFFFFF" filter="url(#f1)" height="22.4" style="stroke: #A80036; stroke-width: 0.800000011920929;" width="8" x="415.6" y="748.7063"/><rect fill="#FFFFFF" filter="url(#f1)" height="75.4125" style="stroke: #A80036; stroke-width: 0.800000011920929;" width="8" x="733.2" y="534.0438"/><rect fill="#FFFFFF" filter="url(#f1)" height="52.1063" style="stroke: #A80036; stroke-width: 0.800000011920929;" width="8" x="850.8" y="557.35"/><rect fill="#FFFFFF" filter="url(#f1)" height="22.4" style="stroke: #A80036; stroke-width: 0.800000011920929;" width="8" x="854.8" y="587.0563"/><rect fill="#FFFFFF" filter="url(#f1)" height="23.3063" style="stroke: #A80036; stroke-width: 0.800000011920929;" width="8" x="990" y="142.1563"/><rect fill="#ADD8E6" height="841.9563" style="stroke: #A80036; stroke-width: 0.800000011920929;" width="330" x="3.2" y="3.2"/><text fill="#000000" font-family="sans-serif" font-size="10.4" font-weight="bold" lengthAdjust="spacingAndGlyphs" textLength="78.4" x="129" y="12.8535">Main process</text><rect fill="#90EE90" height="841.9563" style="stroke: #A80036; stroke-width: 0.800000011920929;" width="450.4" x="334.8" y="3.2"/><text fill="#000000" font-family="sans-serif" font-size="10.4" font-weight="bold" lengthAdjust="spacingAndGlyphs" textLength="88" x="516" y="12.8535">Server process</text><rect fill="#808080" height="841.9563" style="stroke: #A80036; stroke-width: 0.800000011920929;" width="136" x="786.8" y="3.2"/><text fill="#000000" font-family="sans-serif" font-size="10.4" font-weight="bold" lengthAdjust="spacingAndGlyphs" textLength="112" x="798.8" y="12.8535">App Client process</text><line style="stroke: #A80036; stroke-width: 0.800000011920929; stroke-dasharray: 5.0,5.0;" x1="62.4" x2="62.4" y1="46.7438" y2="814.5188"/><line style="stroke: #A80036; stroke-width: 0.800000011920929; stroke-dasharray: 5.0,5.0;" x1="177.2" x2="177.2" y1="46.7438" y2="814.5188"/><line style="stroke: #A80036; stroke-width: 0.800000011920929; stroke-dasharray: 5.0,5.0;" x1="276.4" x2="276.4" y1="46.7438" y2="814.5188"/><line style="stroke: #A80036; stroke-width: 0.800000011920929; stroke-dasharray: 5.0,5.0;" x1="411.6" x2="411.6" y1="46.7438" y2="814.5188"/><line style="stroke: #A80036; stroke-width: 0.800000011920929; stroke-dasharray: 5.0,5.0;" x1="606" x2="606" y1="46.7438" y2="814.5188"/><line style="stroke: #A80036; stroke-width: 0.800000011920929; stroke-dasharray: 5.0,5.0;" x1="737.2" x2="737.2" y1="46.7438" y2="814.5188"/><line style="stroke: #A80036; stroke-width: 0.800000011920929; stroke-dasharray: 5.0,5.0;" x1="854.8" x2="854.8" y1="46.7438" y2="814.5188"/><line style="stroke: #A80036; stroke-width: 0.800000011920929; stroke-dasharray: 5.0,5.0;" x1="994" x2="994" y1="46.7438" y2="814.5188"/><line style="stroke: #A80036; stroke-width: 0.800000011920929; stroke-dasharray: 5.0,5.0;" x1="1128.4" x2="1128.4" y1="46.7438" y2="814.5188"/><rect fill="#FEFECE" filter="url(#f1)" height="24.2375" style="stroke: #A80036; stroke-width: 1.2000000178813934;" width="108.8" x="6.4" y="18.5063"/><text fill="#000000" font-family="sans-serif" font-size="11.2" lengthAdjust="spacingAndGlyphs" textLength="97.6" x="12" y="34.5023">Hook_StartActivity</text><rect fill="#FEFECE" filter="url(#f1)" height="24.2375" style="stroke: #A80036; stroke-width: 1.2000000178813934;" width="108.8" x="6.4" y="813.7188"/><text fill="#000000" font-family="sans-serif" font-size="11.2" lengthAdjust="spacingAndGlyphs" textLength="97.6" x="12" y="829.7149">Hook_StartActivity</text><rect fill="#FEFECE" filter="url(#f1)" height="24.2375" style="stroke: #A80036; stroke-width: 1.2000000178813934;" width="71.2" x="140.4" y="18.5063"/><text fill="#000000" font-family="sans-serif" font-size="11.2" lengthAdjust="spacingAndGlyphs" textLength="60" x="146" y="34.5023">VirtualCore</text><rect fill="#FEFECE" filter="url(#f1)" height="24.2375" style="stroke: #A80036; stroke-width: 1.2000000178813934;" width="71.2" x="140.4" y="813.7188"/><text fill="#000000" font-family="sans-serif" font-size="11.2" lengthAdjust="spacingAndGlyphs" textLength="60" x="146" y="829.7149">VirtualCore</text><rect fill="#FEFECE" filter="url(#f1)" height="24.2375" style="stroke: #A80036; stroke-width: 1.2000000178813934;" width="104" x="222.8" y="18.5063"/><text fill="#000000" font-family="sans-serif" font-size="11.2" lengthAdjust="spacingAndGlyphs" textLength="92.8" x="228.4" y="34.5023">VActivityManager</text><rect fill="#FEFECE" filter="url(#f1)" height="24.2375" style="stroke: #A80036; stroke-width: 1.2000000178813934;" width="104" x="222.8" y="813.7188"/><text fill="#000000" font-family="sans-serif" font-size="11.2" lengthAdjust="spacingAndGlyphs" textLength="92.8" x="228.4" y="829.7149">VActivityManager</text><rect fill="#FEFECE" filter="url(#f1)" height="24.2375" style="stroke: #A80036; stroke-width: 1.2000000178813934;" width="144" x="338" y="18.5063"/><text fill="#000000" font-family="sans-serif" font-size="11.2" lengthAdjust="spacingAndGlyphs" textLength="132.8" x="343.6" y="34.5023">VActivityManagerService</text><rect fill="#FEFECE" filter="url(#f1)" height="24.2375" style="stroke: #A80036; stroke-width: 1.2000000178813934;" width="144" x="338" y="813.7188"/><text fill="#000000" font-family="sans-serif" font-size="11.2" lengthAdjust="spacingAndGlyphs" textLength="132.8" x="343.6" y="829.7149">VActivityManagerService</text><rect fill="#FEFECE" filter="url(#f1)" height="24.2375" style="stroke: #A80036; stroke-width: 1.2000000178813934;" width="153.6" x="527.6" y="18.5063"/><text fill="#000000" font-family="sans-serif" font-size="11.2" lengthAdjust="spacingAndGlyphs" textLength="142.4" x="533.2" y="34.5023">VPackageManagerService</text><rect fill="#FEFECE" filter="url(#f1)" height="24.2375" style="stroke: #A80036; stroke-width: 1.2000000178813934;" width="153.6" x="527.6" y="813.7188"/><text fill="#000000" font-family="sans-serif" font-size="11.2" lengthAdjust="spacingAndGlyphs" textLength="142.4" x="533.2" y="829.7149">VPackageManagerService</text><rect fill="#FEFECE" filter="url(#f1)" height="24.2375" style="stroke: #A80036; stroke-width: 1.2000000178813934;" width="86.4" x="692.4" y="18.5063"/><text fill="#000000" font-family="sans-serif" font-size="11.2" lengthAdjust="spacingAndGlyphs" textLength="75.2" x="698" y="34.5023">ProviderCaller</text><rect fill="#FEFECE" filter="url(#f1)" height="24.2375" style="stroke: #A80036; stroke-width: 1.2000000178813934;" width="86.4" x="692.4" y="813.7188"/><text fill="#000000" font-family="sans-serif" font-size="11.2" lengthAdjust="spacingAndGlyphs" textLength="75.2" x="698" y="829.7149">ProviderCaller</text><rect fill="#FEFECE" filter="url(#f1)" height="24.2375" style="stroke: #A80036; stroke-width: 1.2000000178813934;" width="126.4" x="790" y="18.5063"/><text fill="#000000" font-family="sans-serif" font-size="11.2" lengthAdjust="spacingAndGlyphs" textLength="115.2" x="795.6" y="34.5023">StubContentProvider</text><rect fill="#FEFECE" filter="url(#f1)" height="24.2375" style="stroke: #A80036; stroke-width: 1.2000000178813934;" width="126.4" x="790" y="813.7188"/><text fill="#000000" font-family="sans-serif" font-size="11.2" lengthAdjust="spacingAndGlyphs" textLength="115.2" x="795.6" y="829.7149">StubContentProvider</text><rect fill="#FEFECE" filter="url(#f1)" height="24.2375" style="stroke: #A80036; stroke-width: 1.2000000178813934;" width="129.6" x="927.6" y="18.5063"/><text fill="#000000" font-family="sans-serif" font-size="11.2" lengthAdjust="spacingAndGlyphs" textLength="118.4" x="933.2" y="34.5023">VRedirectActRequest</text><rect fill="#FEFECE" filter="url(#f1)" height="24.2375" style="stroke: #A80036; stroke-width: 1.2000000178813934;" width="129.6" x="927.6" y="813.7188"/><text fill="#000000" font-family="sans-serif" font-size="11.2" lengthAdjust="spacingAndGlyphs" textLength="118.4" x="933.2" y="829.7149">VRedirectActRequest</text><rect fill="#FEFECE" filter="url(#f1)" height="24.2375" style="stroke: #A80036; stroke-width: 1.2000000178813934;" width="117.6" x="1068.4" y="18.5063"/><text fill="#000000" font-family="sans-serif" font-size="11.2" lengthAdjust="spacingAndGlyphs" textLength="106.4" x="1074" y="34.5023">VActRedirectResult</text><rect fill="#FEFECE" filter="url(#f1)" height="24.2375" style="stroke: #A80036; stroke-width: 1.2000000178813934;" width="117.6" x="1068.4" y="813.7188"/><text fill="#000000" font-family="sans-serif" font-size="11.2" lengthAdjust="spacingAndGlyphs" textLength="106.4" x="1074" y="829.7149">VActRedirectResult</text><rect fill="#FFFFFF" filter="url(#f1)" height="728.4688" style="stroke: #A80036; stroke-width: 0.800000011920929;" width="8" x="58.4" y="71.5438"/><rect fill="#FFFFFF" filter="url(#f1)" height="24" style="stroke: #A80036; stroke-width: 0.800000011920929;" width="8" x="173.6" y="94.85"/><rect fill="#FFFFFF" filter="url(#f1)" height="611.2438" style="stroke: #A80036; stroke-width: 0.800000011920929;" width="8" x="272.4" y="188.7688"/><rect fill="#FFFFFF" filter="url(#f1)" height="587.9375" style="stroke: #A80036; stroke-width: 0.800000011920929;" width="8" x="407.6" y="212.075"/><rect fill="#FFFFFF" filter="url(#f1)" height="558.2313" style="stroke: #A80036; stroke-width: 0.800000011920929;" width="8" x="411.6" y="241.7813"/><rect fill="#FFFFFF" filter="url(#f1)" height="333.9688" style="stroke: #A80036; stroke-width: 0.800000011920929;" width="8" x="415.6" y="275.4875"/><rect fill="#FFFFFF" filter="url(#f1)" height="22.4" style="stroke: #A80036; stroke-width: 0.800000011920929;" width="8" x="419.6" y="309.1938"/><rect fill="#FFFFFF" filter="url(#f1)" height="242.5563" style="stroke: #A80036; stroke-width: 0.800000011920929;" width="8" x="419.6" y="366.9"/><rect fill="#FFFFFF" filter="url(#f1)" height="22.4" style="stroke: #A80036; stroke-width: 0.800000011920929;" width="8" x="415.6" y="748.7063"/><rect fill="#FFFFFF" filter="url(#f1)" height="75.4125" style="stroke: #A80036; stroke-width: 0.800000011920929;" width="8" x="733.2" y="534.0438"/><rect fill="#FFFFFF" filter="url(#f1)" height="52.1063" style="stroke: #A80036; stroke-width: 0.800000011920929;" width="8" x="850.8" y="557.35"/><rect fill="#FFFFFF" filter="url(#f1)" height="22.4" style="stroke: #A80036; stroke-width: 0.800000011920929;" width="8" x="854.8" y="587.0563"/><rect fill="#FFFFFF" filter="url(#f1)" height="23.3063" style="stroke: #A80036; stroke-width: 0.800000011920929;" width="8" x="990" y="142.1563"/><polygon fill="#A80036" points="48.8,68.3438,56.8,71.5438,48.8,74.7438,52,71.5438" style="stroke: #A80036; stroke-width: 0.800000011920929;"/><line style="stroke: #A80036; stroke-width: 0.800000011920929;" x1="2.4" x2="53.6" y1="71.5438" y2="71.5438"/><text fill="#000000" font-family="sans-serif" font-size="10.4" lengthAdjust="spacingAndGlyphs" textLength="39.2" x="8" y="67.5973">onHook</text><polygon fill="#A80036" points="164,91.65,172,94.85,164,98.05,167.2,94.85" style="stroke: #A80036; stroke-width: 0.800000011920929;"/><line style="stroke: #A80036; stroke-width: 0.800000011920929;" x1="66.4" x2="168.8" y1="94.85" y2="94.85"/><text fill="#000000" font-family="sans-serif" font-size="10.4" lengthAdjust="spacingAndGlyphs" textLength="92" x="72" y="90.9035">resolveActivityInfo</text><polygon fill="#A80036" points="980.4,138.9563,988.4,142.1563,980.4,145.3563,983.6,142.1563" style="stroke: #A80036; stroke-width: 0.800000011920929;"/><line style="stroke: #A80036; stroke-width: 0.800000011920929;" x1="66.4" x2="985.2" y1="142.1563" y2="142.1563"/><text fill="#000000" font-family="sans-serif" font-size="10.4" lengthAdjust="spacingAndGlyphs" textLength="130.4" x="72" y="138.2098">new VRedirectActRequest</text><polygon fill="#A80036" points="75.2,162.2625,67.2,165.4625,75.2,168.6625,72,165.4625" style="stroke: #A80036; stroke-width: 0.800000011920929;"/><line style="stroke: #A80036; stroke-width: 0.800000011920929; stroke-dasharray: 2.0,2.0;" x1="70.4" x2="993.2" y1="165.4625" y2="165.4625"/><text fill="#000000" font-family="sans-serif" font-size="10.4" lengthAdjust="spacingAndGlyphs" textLength="16.8" x="80" y="161.516">req</text><polygon fill="#A80036" points="262.8,185.5688,270.8,188.7688,262.8,191.9688,266,188.7688" style="stroke: #A80036; stroke-width: 0.800000011920929;"/><line style="stroke: #A80036; stroke-width: 0.800000011920929;" x1="66.4" x2="267.6" y1="188.7688" y2="188.7688"/><text fill="#000000" font-family="sans-serif" font-size="10.4" lengthAdjust="spacingAndGlyphs" textLength="108.8" x="72" y="184.8223">redirectTargetActivity</text><polygon fill="#A80036" points="398,208.875,406,212.075,398,215.275,401.2,212.075" style="stroke: #A80036; stroke-width: 0.800000011920929;"/><line style="stroke: #A80036; stroke-width: 0.800000011920929;" x1="280.4" x2="402.8" y1="212.075" y2="212.075"/><text fill="#000000" font-family="sans-serif" font-size="10.4" lengthAdjust="spacingAndGlyphs" textLength="108.8" x="286" y="208.1285">redirectTargetActivity</text><line style="stroke: #A80036; stroke-width: 0.800000011920929;" x1="415.6" x2="453.2" y1="231.4875" y2="231.4875"/><line style="stroke: #A80036; stroke-width: 0.800000011920929;" x1="453.2" x2="453.2" y1="231.4875" y2="241.8875"/><line style="stroke: #A80036; stroke-width: 0.800000011920929;" x1="420.4" x2="453.2" y1="241.8875" y2="241.8875"/><polygon fill="#A80036" points="428.4,238.6875,420.4,241.8875,428.4,245.0875,425.2,241.8875" style="stroke: #A80036; stroke-width: 0.800000011920929;"/><text fill="#000000" font-family="sans-serif" font-size="10.4" lengthAdjust="spacingAndGlyphs" textLength="144.8" x="425.2" y="227.4348">redirectTargetActivityLocked</text><line style="stroke: #A80036; stroke-width: 0.800000011920929;" x1="419.6" x2="457.2" y1="265.1938" y2="265.1938"/><line style="stroke: #A80036; stroke-width: 0.800000011920929;" x1="457.2" x2="457.2" y1="265.1938" y2="275.5938"/><line style="stroke: #A80036; stroke-width: 0.800000011920929;" x1="424.4" x2="457.2" y1="275.5938" y2="275.5938"/><polygon fill="#A80036" points="432.4,272.3938,424.4,275.5938,432.4,278.7938,429.2,275.5938" style="stroke: #A80036; stroke-width: 0.800000011920929;"/><text fill="#000000" font-family="sans-serif" font-size="10.4" lengthAdjust="spacingAndGlyphs" textLength="100" x="429.2" y="261.141">startProcessLocked</text><line style="stroke: #A80036; stroke-width: 0.800000011920929;" x1="427.6" x2="461.2" y1="302.9" y2="302.9"/><line style="stroke: #A80036; stroke-width: 0.800000011920929;" x1="461.2" x2="461.2" y1="302.9" y2="313.3"/><line style="stroke: #A80036; stroke-width: 0.800000011920929;" x1="428.4" x2="461.2" y1="313.3" y2="313.3"/><polygon fill="#A80036" points="436.4,310.1,428.4,313.3,436.4,316.5,433.2,313.3" style="stroke: #A80036; stroke-width: 0.800000011920929;"/><text fill="#000000" font-family="sans-serif" font-size="10.4" lengthAdjust="spacingAndGlyphs" textLength="131.2" x="433.2" y="298.8473">queryFreeStubForProcess</text><line style="stroke: #A80036; stroke-width: 0.800000011920929;" x1="423.6" x2="461.2" y1="356.6063" y2="356.6063"/><line style="stroke: #A80036; stroke-width: 0.800000011920929;" x1="461.2" x2="461.2" y1="356.6063" y2="367.0063"/><line style="stroke: #A80036; stroke-width: 0.800000011920929;" x1="428.4" x2="461.2" y1="367.0063" y2="367.0063"/><polygon fill="#A80036" points="436.4,363.8063,428.4,367.0063,436.4,370.2063,433.2,367.0063" style="stroke: #A80036; stroke-width: 0.800000011920929;"/><text fill="#000000" font-family="sans-serif" font-size="10.4" lengthAdjust="spacingAndGlyphs" textLength="142.4" x="433.2" y="352.5535">performStartProcessLocked</text><polygon fill="#A80036" points="596.4,391.0063,604.4,394.2063,596.4,397.4063,599.6,394.2063" style="stroke: #A80036; stroke-width: 0.800000011920929;"/><line style="stroke: #A80036; stroke-width: 0.800000011920929;" x1="427.6" x2="601.2" y1="394.2063" y2="394.2063"/><text fill="#000000" font-family="sans-serif" font-size="10.4" lengthAdjust="spacingAndGlyphs" textLength="114.4" x="433.2" y="390.2598">querySharedPackages</text><polygon fill="#A80036" points="436.4,414.3125,428.4,417.5125,436.4,420.7125,433.2,417.5125" style="stroke: #A80036; stroke-width: 0.800000011920929;"/><line style="stroke: #A80036; stroke-width: 0.800000011920929; stroke-dasharray: 2.0,2.0;" x1="431.6" x2="605.2" y1="417.5125" y2="417.5125"/><text fill="#000000" font-family="sans-serif" font-size="10.4" lengthAdjust="spacingAndGlyphs" textLength="159.2" x="441.2" y="413.566">sharedPackages : List&lt;String&gt;</text><polygon fill="#A80036" points="596.4,437.6188,604.4,440.8188,596.4,444.0188,599.6,440.8188" style="stroke: #A80036; stroke-width: 0.800000011920929;"/><line style="stroke: #A80036; stroke-width: 0.800000011920929;" x1="427.6" x2="601.2" y1="440.8188" y2="440.8188"/><text fill="#000000" font-family="sans-serif" font-size="10.4" lengthAdjust="spacingAndGlyphs" textLength="116.8" x="433.2" y="436.8723">queryContentProviders</text><polygon fill="#A80036" points="436.4,460.925,428.4,464.125,436.4,467.325,433.2,464.125" style="stroke: #A80036; stroke-width: 0.800000011920929;"/><line style="stroke: #A80036; stroke-width: 0.800000011920929; stroke-dasharray: 2.0,2.0;" x1="431.6" x2="605.2" y1="464.125" y2="464.125"/><text fill="#000000" font-family="sans-serif" font-size="10.4" lengthAdjust="spacingAndGlyphs" textLength="152" x="441.2" y="460.1785">providers : List&lt;ProviderInfo&gt;</text><polygon fill="#A80036" points="596.4,484.2313,604.4,487.4313,596.4,490.6313,599.6,487.4313" style="stroke: #A80036; stroke-width: 0.800000011920929;"/><line style="stroke: #A80036; stroke-width: 0.800000011920929;" x1="427.6" x2="601.2" y1="487.4313" y2="487.4313"/><text fill="#000000" font-family="sans-serif" font-size="10.4" lengthAdjust="spacingAndGlyphs" textLength="96.8" x="433.2" y="483.4848">getSharedLibraries</text><polygon fill="#A80036" points="436.4,507.5375,428.4,510.7375,436.4,513.9375,433.2,510.7375" style="stroke: #A80036; stroke-width: 0.800000011920929;"/><line style="stroke: #A80036; stroke-width: 0.800000011920929; stroke-dasharray: 2.0,2.0;" x1="431.6" x2="605.2" y1="510.7375" y2="510.7375"/><text fill="#000000" font-family="sans-serif" font-size="10.4" lengthAdjust="spacingAndGlyphs" textLength="142.4" x="441.2" y="506.791">usesLibraries : List&lt;String&gt;</text><polygon fill="#A80036" points="723.6,530.8438,731.6,534.0438,723.6,537.2438,726.8,534.0438" style="stroke: #A80036; stroke-width: 0.800000011920929;"/><line style="stroke: #A80036; stroke-width: 0.800000011920929;" x1="427.6" x2="728.4" y1="534.0438" y2="534.0438"/><text fill="#000000" font-family="sans-serif" font-size="10.4" lengthAdjust="spacingAndGlyphs" textLength="191.2" x="433.2" y="530.0973">call(MethodConstants.INIT_PROCESS)</text><polygon fill="#A80036" points="841.2,554.15,849.2,557.35,841.2,560.55,844.4,557.35" style="stroke: #A80036; stroke-width: 0.800000011920929;"/><line style="stroke: #A80036; stroke-width: 0.800000011920929;" x1="741.2" x2="846" y1="557.35" y2="557.35"/><text fill="#000000" font-family="sans-serif" font-size="10.4" lengthAdjust="spacingAndGlyphs" textLength="16.8" x="746.8" y="553.4035">call</text><line style="stroke: #A80036; stroke-width: 0.800000011920929;" x1="862.8" x2="896.4" y1="580.7625" y2="580.7625"/><line style="stroke: #A80036; stroke-width: 0.800000011920929;" x1="896.4" x2="896.4" y1="580.7625" y2="591.1625"/><line style="stroke: #A80036; stroke-width: 0.800000011920929;" x1="863.6" x2="896.4" y1="591.1625" y2="591.1625"/><polygon fill="#A80036" points="871.6,587.9625,863.6,591.1625,871.6,594.3625,868.4,591.1625" style="stroke: #A80036; stroke-width: 0.800000011920929;"/><text fill="#000000" font-family="sans-serif" font-size="10.4" lengthAdjust="spacingAndGlyphs" textLength="55.2" x="868.4" y="576.7098">initProcess</text><polygon fill="#FBFB77" filter="url(#f1)" points="568.8,625.5625,568.8,717.5625,901.6,717.5625,901.6,633.5625,893.6,625.5625,568.8,625.5625" style="stroke: #A80036; stroke-width: 0.800000011920929;"/><line style="stroke: #A80036; stroke-width: 0.800000011920929;" x1="893.6" x2="893.6" y1="625.5625" y2="633.5625"/><line style="stroke: #A80036; stroke-width: 0.800000011920929;" x1="901.6" x2="893.6" y1="633.5625" y2="633.5625"/><text fill="#000000" font-family="sans-serif" font-size="10.4" lengthAdjust="spacingAndGlyphs" textLength="312" x="573.6" y="639.216">StubContentProvider.java中定义了20个静态内部类C1到C20，都</text><text fill="#000000" font-family="sans-serif" font-size="10.4" lengthAdjust="spacingAndGlyphs" textLength="293.6" x="573.6" y="651.3223">是StubContentProvider的子类。并且在AndroidManifest.xml</text><text fill="#000000" font-family="sans-serif" font-size="10.4" lengthAdjust="spacingAndGlyphs" textLength="246.4" x="573.6" y="663.4285">中声明了process字段，与对应的StubActivity一致。</text><text fill="#000000" font-family="sans-serif" font-size="10.4" lengthAdjust="spacingAndGlyphs" textLength="244" x="573.6" y="675.5348">VA的服务进程取出一个空的stubContentProvider，</text><text fill="#000000" font-family="sans-serif" font-size="10.4" lengthAdjust="spacingAndGlyphs" textLength="312" x="573.6" y="687.641">借助Android ContentProvider机制，系统会创建一个新进程出来，</text><text fill="#000000" font-family="sans-serif" font-size="10.4" lengthAdjust="spacingAndGlyphs" textLength="316" x="573.6" y="699.7473">稍后被作为双开应用的容身之所。这个偷梁换柱的过程由VA服务进程</text><text fill="#000000" font-family="sans-serif" font-size="10.4" lengthAdjust="spacingAndGlyphs" textLength="31.2" x="573.6" y="711.8535">完成。</text><line style="stroke: #A80036; stroke-width: 0.800000011920929;" x1="423.6" x2="457.2" y1="742.4125" y2="742.4125"/><line style="stroke: #A80036; stroke-width: 0.800000011920929;" x1="457.2" x2="457.2" y1="742.4125" y2="752.8125"/><line style="stroke: #A80036; stroke-width: 0.800000011920929;" x1="424.4" x2="457.2" y1="752.8125" y2="752.8125"/><polygon fill="#A80036" points="432.4,749.6125,424.4,752.8125,432.4,756.0125,429.2,752.8125" style="stroke: #A80036; stroke-width: 0.800000011920929;"/><text fill="#000000" font-family="sans-serif" font-size="10.4" lengthAdjust="spacingAndGlyphs" textLength="104.8" x="429.2" y="738.3598">fetchStubActivityInfo</text><polygon fill="#A80036" points="420.4,796.8125,412.4,800.0125,420.4,803.2125,417.2,800.0125" style="stroke: #A80036; stroke-width: 0.800000011920929;"/><line style="stroke: #A80036; stroke-width: 0.800000011920929; stroke-dasharray: 2.0,2.0;" x1="415.6" x2="1128" y1="800.0125" y2="800.0125"/><text fill="#000000" font-family="sans-serif" font-size="10.4" lengthAdjust="spacingAndGlyphs" textLength="164" x="425.2" y="796.066">result = new VActRedirectResult</text></g></svg>