<?xml version="1.0" encoding="UTF-8" standalone="yes"?><svg xmlns="http://www.w3.org/2000/svg" xmlns:xlink="http://www.w3.org/1999/xlink" height="951.2px" style="width:1258px;height:951px;" version="1.1" viewBox="0 0 1258 951" width="1258.4px"><defs><filter height="300%" id="f1" width="300%" x="-1" y="-1"><feGaussianBlur result="blurOut" stdDeviation="1.600000023841858"/><feColorMatrix in="blurOut" result="blurOut2" type="matrix" values="0 0 0 0 0 0 0 0 0 0 0 0 0 0 0 0 0 0 .4 0"/><feOffset dx="3.200000047683716" dy="3.200000047683716" in="blurOut2" result="blurOut3"/><feBlend in="SourceGraphic" in2="blurOut3" mode="normal"/></filter></defs><g><rect fill="#FFFFFF" filter="url(#f1)" height="283.2219" style="stroke: #A80036; stroke-width: 0.800000011920929;" width="8" x="67.2" y="89.7031"/><rect fill="#FFFFFF" filter="url(#f1)" height="219.25" style="stroke: #A80036; stroke-width: 0.800000011920929;" width="8" x="71.2" y="153.675"/><rect fill="#FFFFFF" filter="url(#f1)" height="23.3063" style="stroke: #A80036; stroke-width: 0.800000011920929;" width="8" x="186.4" y="180.9813"/><rect fill="#FFFFFF" filter="url(#f1)" height="75.4125" style="stroke: #A80036; stroke-width: 0.800000011920929;" width="8" x="186.4" y="297.5125"/><rect fill="#FFFFFF" filter="url(#f1)" height="22.4" style="stroke: #A80036; stroke-width: 0.800000011920929;" width="8" x="190.4" y="350.525"/><rect fill="#FFFFFF" filter="url(#f1)" height="497.8625" style="stroke: #A80036; stroke-width: 0.800000011920929;" width="8" x="186.4" y="408.2313"/><rect fill="#FFFFFF" filter="url(#f1)" height="22.4" style="stroke: #A80036; stroke-width: 0.800000011920929;" width="8" x="190.4" y="583.8563"/><rect fill="#FFFFFF" filter="url(#f1)" height="22.4" style="stroke: #A80036; stroke-width: 0.800000011920929;" width="8" x="190.4" y="783.4813"/><rect fill="#FFFFFF" filter="url(#f1)" height="145.3313" style="stroke: #A80036; stroke-width: 0.800000011920929;" width="8" x="323.2" y="227.5938"/><rect fill="#FFFFFF" filter="url(#f1)" height="24" style="stroke: #A80036; stroke-width: 0.800000011920929;" width="8" x="323.2" y="834.7875"/><rect fill="#FFFFFF" filter="url(#f1)" height="122.025" style="stroke: #A80036; stroke-width: 0.800000011920929;" width="8" x="458.4" y="250.9"/><rect fill="#FFFFFF" filter="url(#f1)" height="24" style="stroke: #A80036; stroke-width: 0.800000011920929;" width="8" x="458.4" y="882.0938"/><rect fill="#FFFFFF" filter="url(#f1)" height="98.7188" style="stroke: #A80036; stroke-width: 0.800000011920929;" width="8" x="567.6" y="274.2063"/><rect fill="#FFFFFF" filter="url(#f1)" height="24" style="stroke: #A80036; stroke-width: 0.800000011920929;" width="8" x="732.8" y="435.5375"/><rect fill="#FFFFFF" filter="url(#f1)" height="24" style="stroke: #A80036; stroke-width: 0.800000011920929;" width="8" x="732.8" y="482.8438"/><rect fill="#FFFFFF" filter="url(#f1)" height="24" style="stroke: #A80036; stroke-width: 0.800000011920929;" width="8" x="809.6" y="530.15"/><rect fill="#FFFFFF" filter="url(#f1)" height="24" style="stroke: #A80036; stroke-width: 0.800000011920929;" width="8" x="910" y="635.1625"/><rect fill="#FFFFFF" filter="url(#f1)" height="24" style="stroke: #A80036; stroke-width: 0.800000011920929;" width="8" x="1027.2" y="682.4688"/><rect fill="#FFFFFF" filter="url(#f1)" height="24" style="stroke: #A80036; stroke-width: 0.800000011920929;" width="8" x="1172" y="729.775"/><line style="stroke: #A80036; stroke-width: 0.800000011920929; stroke-dasharray: 5.0,5.0;" x1="71.2" x2="71.2" y1="30.6375" y2="920.6"/><line style="stroke: #A80036; stroke-width: 0.800000011920929; stroke-dasharray: 5.0,5.0;" x1="190.4" x2="190.4" y1="30.6375" y2="920.6"/><line style="stroke: #A80036; stroke-width: 0.800000011920929; stroke-dasharray: 5.0,5.0;" x1="327.2" x2="327.2" y1="30.6375" y2="920.6"/><line style="stroke: #A80036; stroke-width: 0.800000011920929; stroke-dasharray: 5.0,5.0;" x1="462.4" x2="462.4" y1="30.6375" y2="920.6"/><line style="stroke: #A80036; stroke-width: 0.800000011920929; stroke-dasharray: 5.0,5.0;" x1="571.2" x2="571.2" y1="30.6375" y2="920.6"/><line style="stroke: #A80036; stroke-width: 0.800000011920929; stroke-dasharray: 5.0,5.0;" x1="654.4" x2="654.4" y1="30.6375" y2="920.6"/><line style="stroke: #A80036; stroke-width: 0.800000011920929; stroke-dasharray: 5.0,5.0;" x1="736.8" x2="736.8" y1="30.6375" y2="920.6"/><line style="stroke: #A80036; stroke-width: 0.800000011920929; stroke-dasharray: 5.0,5.0;" x1="813.6" x2="813.6" y1="30.6375" y2="920.6"/><line style="stroke: #A80036; stroke-width: 0.800000011920929; stroke-dasharray: 5.0,5.0;" x1="913.6" x2="913.6" y1="30.6375" y2="920.6"/><line style="stroke: #A80036; stroke-width: 0.800000011920929; stroke-dasharray: 5.0,5.0;" x1="1031.2" x2="1031.2" y1="30.6375" y2="920.6"/><line style="stroke: #A80036; stroke-width: 0.800000011920929; stroke-dasharray: 5.0,5.0;" x1="1176" x2="1176" y1="30.6375" y2="920.6"/><rect fill="#FEFECE" filter="url(#f1)" height="24.2375" style="stroke: #A80036; stroke-width: 1.2000000178813934;" width="126.4" x="6.4" y="2.4"/><text fill="#000000" font-family="sans-serif" font-size="11.2" lengthAdjust="spacingAndGlyphs" textLength="115.2" x="12" y="18.3961">StubContentProvider</text><rect fill="#FEFECE" filter="url(#f1)" height="24.2375" style="stroke: #A80036; stroke-width: 1.2000000178813934;" width="126.4" x="6.4" y="919.8"/><text fill="#000000" font-family="sans-serif" font-size="11.2" lengthAdjust="spacingAndGlyphs" textLength="115.2" x="12" y="935.7961">StubContentProvider</text><rect fill="#FEFECE" filter="url(#f1)" height="24.2375" style="stroke: #A80036; stroke-width: 1.2000000178813934;" width="72" x="152.8" y="2.4"/><text fill="#000000" font-family="sans-serif" font-size="11.2" lengthAdjust="spacingAndGlyphs" textLength="60.8" x="158.4" y="18.3961">VClientImpl</text><rect fill="#FEFECE" filter="url(#f1)" height="24.2375" style="stroke: #A80036; stroke-width: 1.2000000178813934;" width="72" x="152.8" y="919.8"/><text fill="#000000" font-family="sans-serif" font-size="11.2" lengthAdjust="spacingAndGlyphs" textLength="60.8" x="158.4" y="935.7961">VClientImpl</text><rect fill="#FEFECE" filter="url(#f1)" height="24.2375" style="stroke: #A80036; stroke-width: 1.2000000178813934;" width="104" x="273.6" y="2.4"/><text fill="#000000" font-family="sans-serif" font-size="11.2" lengthAdjust="spacingAndGlyphs" textLength="92.8" x="279.2" y="18.3961">VActivityManager</text><rect fill="#FEFECE" filter="url(#f1)" height="24.2375" style="stroke: #A80036; stroke-width: 1.2000000178813934;" width="104" x="273.6" y="919.8"/><text fill="#000000" font-family="sans-serif" font-size="11.2" lengthAdjust="spacingAndGlyphs" textLength="92.8" x="279.2" y="935.7961">VActivityManager</text><rect fill="#FEFECE" filter="url(#f1)" height="24.2375" style="stroke: #A80036; stroke-width: 1.2000000178813934;" width="144" x="388.8" y="2.4"/><text fill="#000000" font-family="sans-serif" font-size="11.2" lengthAdjust="spacingAndGlyphs" textLength="132.8" x="394.4" y="18.3961">VActivityManagerService</text><rect fill="#FEFECE" filter="url(#f1)" height="24.2375" style="stroke: #A80036; stroke-width: 1.2000000178813934;" width="144" x="388.8" y="919.8"/><text fill="#000000" font-family="sans-serif" font-size="11.2" lengthAdjust="spacingAndGlyphs" textLength="132.8" x="394.4" y="935.7961">VActivityManagerService</text><rect fill="#FEFECE" filter="url(#f1)" height="24.2375" style="stroke: #A80036; stroke-width: 1.2000000178813934;" width="52" x="544" y="2.4"/><text fill="#000000" font-family="sans-serif" font-size="11.2" lengthAdjust="spacingAndGlyphs" textLength="40.8" x="549.6" y="18.3961">IVClient</text><rect fill="#FEFECE" filter="url(#f1)" height="24.2375" style="stroke: #A80036; stroke-width: 1.2000000178813934;" width="52" x="544" y="919.8"/><text fill="#000000" font-family="sans-serif" font-size="11.2" lengthAdjust="spacingAndGlyphs" textLength="40.8" x="549.6" y="935.7961">IVClient</text><rect fill="#FEFECE" filter="url(#f1)" height="24.2375" style="stroke: #A80036; stroke-width: 1.2000000178813934;" width="91.2" x="607.2" y="2.4"/><text fill="#000000" font-family="sans-serif" font-size="11.2" lengthAdjust="spacingAndGlyphs" textLength="80" x="612.8" y="18.3961">VirtualRuntime</text><rect fill="#FEFECE" filter="url(#f1)" height="24.2375" style="stroke: #A80036; stroke-width: 1.2000000178813934;" width="91.2" x="607.2" y="919.8"/><text fill="#000000" font-family="sans-serif" font-size="11.2" lengthAdjust="spacingAndGlyphs" textLength="80" x="612.8" y="935.7961">VirtualRuntime</text><rect fill="#FEFECE" filter="url(#f1)" height="24.2375" style="stroke: #A80036; stroke-width: 1.2000000178813934;" width="51.2" x="709.6" y="2.4"/><text fill="#000000" font-family="sans-serif" font-size="11.2" lengthAdjust="spacingAndGlyphs" textLength="40" x="715.2" y="18.3961">IOHook</text><rect fill="#FEFECE" filter="url(#f1)" height="24.2375" style="stroke: #A80036; stroke-width: 1.2000000178813934;" width="51.2" x="709.6" y="919.8"/><text fill="#000000" font-family="sans-serif" font-size="11.2" lengthAdjust="spacingAndGlyphs" textLength="40" x="715.2" y="935.7961">IOHook</text><rect fill="#FEFECE" filter="url(#f1)" height="24.2375" style="stroke: #A80036; stroke-width: 1.2000000178813934;" width="80" x="772" y="2.4"/><text fill="#000000" font-family="sans-serif" font-size="11.2" lengthAdjust="spacingAndGlyphs" textLength="68.8" x="777.6" y="18.3961">ContextFixer</text><rect fill="#FEFECE" filter="url(#f1)" height="24.2375" style="stroke: #A80036; stroke-width: 1.2000000178813934;" width="80" x="772" y="919.8"/><text fill="#000000" font-family="sans-serif" font-size="11.2" lengthAdjust="spacingAndGlyphs" textLength="68.8" x="777.6" y="935.7961">ContextFixer</text><rect fill="#FEFECE" filter="url(#f1)" height="24.2375" style="stroke: #A80036; stroke-width: 1.2000000178813934;" width="98.4" x="863.2" y="2.4"/><text fill="#000000" font-family="sans-serif" font-size="11.2" lengthAdjust="spacingAndGlyphs" textLength="87.2" x="868.8" y="18.3961">Instrumentation</text><rect fill="#FEFECE" filter="url(#f1)" height="24.2375" style="stroke: #A80036; stroke-width: 1.2000000178813934;" width="98.4" x="863.2" y="919.8"/><text fill="#000000" font-family="sans-serif" font-size="11.2" lengthAdjust="spacingAndGlyphs" textLength="87.2" x="868.8" y="935.7961">Instrumentation</text><rect fill="#FEFECE" filter="url(#f1)" height="24.2375" style="stroke: #A80036; stroke-width: 1.2000000178813934;" width="113.6" x="972.8" y="2.4"/><text fill="#000000" font-family="sans-serif" font-size="11.2" lengthAdjust="spacingAndGlyphs" textLength="102.4" x="978.4" y="18.3961">VPackageManager</text><rect fill="#FEFECE" filter="url(#f1)" height="24.2375" style="stroke: #A80036; stroke-width: 1.2000000178813934;" width="113.6" x="972.8" y="919.8"/><text fill="#000000" font-family="sans-serif" font-size="11.2" lengthAdjust="spacingAndGlyphs" textLength="102.4" x="978.4" y="935.7961">VPackageManager</text><rect fill="#FEFECE" filter="url(#f1)" height="24.2375" style="stroke: #A80036; stroke-width: 1.2000000178813934;" width="153.6" x="1097.6" y="2.4"/><text fill="#000000" font-family="sans-serif" font-size="11.2" lengthAdjust="spacingAndGlyphs" textLength="142.4" x="1103.2" y="18.3961">VPackageManagerService</text><rect fill="#FEFECE" filter="url(#f1)" height="24.2375" style="stroke: #A80036; stroke-width: 1.2000000178813934;" width="153.6" x="1097.6" y="919.8"/><text fill="#000000" font-family="sans-serif" font-size="11.2" lengthAdjust="spacingAndGlyphs" textLength="142.4" x="1103.2" y="935.7961">VPackageManagerService</text><rect fill="#FFFFFF" filter="url(#f1)" height="283.2219" style="stroke: #A80036; stroke-width: 0.800000011920929;" width="8" x="67.2" y="89.7031"/><rect fill="#FFFFFF" filter="url(#f1)" height="219.25" style="stroke: #A80036; stroke-width: 0.800000011920929;" width="8" x="71.2" y="153.675"/><rect fill="#FFFFFF" filter="url(#f1)" height="23.3063" style="stroke: #A80036; stroke-width: 0.800000011920929;" width="8" x="186.4" y="180.9813"/><rect fill="#FFFFFF" filter="url(#f1)" height="75.4125" style="stroke: #A80036; stroke-width: 0.800000011920929;" width="8" x="186.4" y="297.5125"/><rect fill="#FFFFFF" filter="url(#f1)" height="22.4" style="stroke: #A80036; stroke-width: 0.800000011920929;" width="8" x="190.4" y="350.525"/><rect fill="#FFFFFF" filter="url(#f1)" height="497.8625" style="stroke: #A80036; stroke-width: 0.800000011920929;" width="8" x="186.4" y="408.2313"/><rect fill="#FFFFFF" filter="url(#f1)" height="22.4" style="stroke: #A80036; stroke-width: 0.800000011920929;" width="8" x="190.4" y="583.8563"/><rect fill="#FFFFFF" filter="url(#f1)" height="22.4" style="stroke: #A80036; stroke-width: 0.800000011920929;" width="8" x="190.4" y="783.4813"/><rect fill="#FFFFFF" filter="url(#f1)" height="145.3313" style="stroke: #A80036; stroke-width: 0.800000011920929;" width="8" x="323.2" y="227.5938"/><rect fill="#FFFFFF" filter="url(#f1)" height="24" style="stroke: #A80036; stroke-width: 0.800000011920929;" width="8" x="323.2" y="834.7875"/><rect fill="#FFFFFF" filter="url(#f1)" height="122.025" style="stroke: #A80036; stroke-width: 0.800000011920929;" width="8" x="458.4" y="250.9"/><rect fill="#FFFFFF" filter="url(#f1)" height="24" style="stroke: #A80036; stroke-width: 0.800000011920929;" width="8" x="458.4" y="882.0938"/><rect fill="#FFFFFF" filter="url(#f1)" height="98.7188" style="stroke: #A80036; stroke-width: 0.800000011920929;" width="8" x="567.6" y="274.2063"/><rect fill="#FFFFFF" filter="url(#f1)" height="24" style="stroke: #A80036; stroke-width: 0.800000011920929;" width="8" x="732.8" y="435.5375"/><rect fill="#FFFFFF" filter="url(#f1)" height="24" style="stroke: #A80036; stroke-width: 0.800000011920929;" width="8" x="732.8" y="482.8438"/><rect fill="#FFFFFF" filter="url(#f1)" height="24" style="stroke: #A80036; stroke-width: 0.800000011920929;" width="8" x="809.6" y="530.15"/><rect fill="#FFFFFF" filter="url(#f1)" height="24" style="stroke: #A80036; stroke-width: 0.800000011920929;" width="8" x="910" y="635.1625"/><rect fill="#FFFFFF" filter="url(#f1)" height="24" style="stroke: #A80036; stroke-width: 0.800000011920929;" width="8" x="1027.2" y="682.4688"/><rect fill="#FFFFFF" filter="url(#f1)" height="24" style="stroke: #A80036; stroke-width: 0.800000011920929;" width="8" x="1172" y="729.775"/><polygon fill="#A80036" points="57.6,86.5031,65.6,89.7031,57.6,92.9031,60.8,89.7031" style="stroke: #A80036; stroke-width: 0.800000011920929;"/><line style="stroke: #A80036; stroke-width: 0.800000011920929;" x1="2.4" x2="62.4" y1="89.7031" y2="89.7031"/><text fill="#000000" font-family="sans-serif" font-size="10.4" lengthAdjust="spacingAndGlyphs" textLength="16.8" x="8" y="85.7566">call</text><polygon fill="#FBFB77" filter="url(#f1)" points="79.2,42.6375,79.2,122.6375,468.8,122.6375,468.8,50.6375,460.8,42.6375,79.2,42.6375" style="stroke: #A80036; stroke-width: 0.800000011920929;"/><line style="stroke: #A80036; stroke-width: 0.800000011920929;" x1="460.8" x2="460.8" y1="42.6375" y2="50.6375"/><line style="stroke: #A80036; stroke-width: 0.800000011920929;" x1="468.8" x2="460.8" y1="50.6375" y2="50.6375"/><text fill="#000000" font-family="sans-serif" font-size="10.4" lengthAdjust="spacingAndGlyphs" textLength="316" x="84" y="56.291">该新进程被创建的时候，该组件所属的Application类会被系统创建，</text><text fill="#000000" font-family="sans-serif" font-size="10.4" lengthAdjust="spacingAndGlyphs" textLength="270.4" x="84" y="68.3973">其attachBaseContext方法、onCreate方法都被会调用。</text><text fill="#000000" font-family="sans-serif" font-size="10.4" lengthAdjust="spacingAndGlyphs" textLength="364" x="84" y="80.5035">而VA中双开的应用都是利用VA预先埋下的stub provider/activity生成的进程，</text><text fill="#000000" font-family="sans-serif" font-size="10.4" lengthAdjust="spacingAndGlyphs" textLength="372.8" x="84" y="92.6098">因此StubContentProvider所在的进程被系统创建时，会依次自动执行VApp类的</text><text fill="#000000" font-family="sans-serif" font-size="10.4" lengthAdjust="spacingAndGlyphs" textLength="356" x="84" y="104.716">attachBaseContext，也就是会执行VirtualCore.getCore().startup(base);</text><text fill="#000000" font-family="sans-serif" font-size="10.4" lengthAdjust="spacingAndGlyphs" textLength="139.2" x="84" y="116.8223">也就是自动添加了hook方法。</text><line style="stroke: #A80036; stroke-width: 0.800000011920929;" x1="75.2" x2="112.8" y1="143.3813" y2="143.3813"/><line style="stroke: #A80036; stroke-width: 0.800000011920929;" x1="112.8" x2="112.8" y1="143.3813" y2="153.7813"/><line style="stroke: #A80036; stroke-width: 0.800000011920929;" x1="80" x2="112.8" y1="153.7813" y2="153.7813"/><polygon fill="#A80036" points="88,150.5813,80,153.7813,88,156.9813,84.8,153.7813" style="stroke: #A80036; stroke-width: 0.800000011920929;"/><text fill="#000000" font-family="sans-serif" font-size="10.4" lengthAdjust="spacingAndGlyphs" textLength="55.2" x="84.8" y="139.3285">initProcess</text><polygon fill="#A80036" points="176.8,177.7813,184.8,180.9813,176.8,184.1813,180,180.9813" style="stroke: #A80036; stroke-width: 0.800000011920929;"/><line style="stroke: #A80036; stroke-width: 0.800000011920929;" x1="79.2" x2="181.6" y1="180.9813" y2="180.9813"/><text fill="#000000" font-family="sans-serif" font-size="10.4" lengthAdjust="spacingAndGlyphs" textLength="45.6" x="84.8" y="177.0348">getClient</text><polygon fill="#A80036" points="88,201.0875,80,204.2875,88,207.4875,84.8,204.2875" style="stroke: #A80036; stroke-width: 0.800000011920929;"/><line style="stroke: #A80036; stroke-width: 0.800000011920929; stroke-dasharray: 2.0,2.0;" x1="83.2" x2="189.6" y1="204.2875" y2="204.2875"/><text fill="#000000" font-family="sans-serif" font-size="10.4" lengthAdjust="spacingAndGlyphs" textLength="88" x="92.8" y="200.341">client:VClientImpl</text><polygon fill="#A80036" points="313.6,224.3938,321.6,227.5938,313.6,230.7938,316.8,227.5938" style="stroke: #A80036; stroke-width: 0.800000011920929;"/><line style="stroke: #A80036; stroke-width: 0.800000011920929;" x1="79.2" x2="318.4" y1="227.5938" y2="227.5938"/><text fill="#000000" font-family="sans-serif" font-size="10.4" lengthAdjust="spacingAndGlyphs" textLength="96.8" x="84.8" y="223.6473">attachClient(client)</text><polygon fill="#A80036" points="448.8,247.7,456.8,250.9,448.8,254.1,452,250.9" style="stroke: #A80036; stroke-width: 0.800000011920929;"/><line style="stroke: #A80036; stroke-width: 0.800000011920929;" x1="331.2" x2="453.6" y1="250.9" y2="250.9"/><text fill="#000000" font-family="sans-serif" font-size="10.4" lengthAdjust="spacingAndGlyphs" textLength="61.6" x="336.8" y="246.9535">attachClient</text><polygon fill="#A80036" points="558,271.0063,566,274.2063,558,277.4063,561.2,274.2063" style="stroke: #A80036; stroke-width: 0.800000011920929;"/><line style="stroke: #A80036; stroke-width: 0.800000011920929;" x1="466.4" x2="562.8" y1="274.2063" y2="274.2063"/><text fill="#000000" font-family="sans-serif" font-size="10.4" lengthAdjust="spacingAndGlyphs" textLength="77.6" x="472" y="270.2598">bindApplication</text><polygon fill="#A80036" points="203.2,294.3125,195.2,297.5125,203.2,300.7125,200,297.5125" style="stroke: #A80036; stroke-width: 0.800000011920929;"/><line style="stroke: #A80036; stroke-width: 0.800000011920929;" x1="198.4" x2="566.8" y1="297.5125" y2="297.5125"/><text fill="#000000" font-family="sans-serif" font-size="10.4" lengthAdjust="spacingAndGlyphs" textLength="77.6" x="208" y="293.566">bindApplication</text><polygon fill="#A80036" points="644.8,317.6188,652.8,320.8188,644.8,324.0188,648,320.8188" style="stroke: #A80036; stroke-width: 0.800000011920929;"/><line style="stroke: #A80036; stroke-width: 0.800000011920929;" x1="194.4" x2="649.6" y1="320.8188" y2="320.8188"/><text fill="#000000" font-family="sans-serif" font-size="10.4" lengthAdjust="spacingAndGlyphs" textLength="71.2" x="200" y="316.8723">setupRuntime</text><line style="stroke: #A80036; stroke-width: 0.800000011920929;" x1="198.4" x2="232" y1="344.2313" y2="344.2313"/><line style="stroke: #A80036; stroke-width: 0.800000011920929;" x1="232" x2="232" y1="344.2313" y2="354.6313"/><line style="stroke: #A80036; stroke-width: 0.800000011920929;" x1="199.2" x2="232" y1="354.6313" y2="354.6313"/><polygon fill="#A80036" points="207.2,351.4313,199.2,354.6313,207.2,357.8313,204,354.6313" style="stroke: #A80036; stroke-width: 0.800000011920929;"/><text fill="#000000" font-family="sans-serif" font-size="10.4" lengthAdjust="spacingAndGlyphs" textLength="70.4" x="204" y="340.1785">sendMessage</text><line style="stroke: #A80036; stroke-width: 0.800000011920929;" x1="190.4" x2="228" y1="397.9375" y2="397.9375"/><line style="stroke: #A80036; stroke-width: 0.800000011920929;" x1="228" x2="228" y1="397.9375" y2="408.3375"/><line style="stroke: #A80036; stroke-width: 0.800000011920929;" x1="195.2" x2="228" y1="408.3375" y2="408.3375"/><polygon fill="#A80036" points="203.2,405.1375,195.2,408.3375,203.2,411.5375,200,408.3375" style="stroke: #A80036; stroke-width: 0.800000011920929;"/><text fill="#000000" font-family="sans-serif" font-size="10.4" lengthAdjust="spacingAndGlyphs" textLength="112.8" x="200" y="393.8848">handleBindApplication</text><polygon fill="#A80036" points="723.2,432.3375,731.2,435.5375,723.2,438.7375,726.4,435.5375" style="stroke: #A80036; stroke-width: 0.800000011920929;"/><line style="stroke: #A80036; stroke-width: 0.800000011920929;" x1="194.4" x2="728" y1="435.5375" y2="435.5375"/><text fill="#000000" font-family="sans-serif" font-size="10.4" lengthAdjust="spacingAndGlyphs" textLength="87.2" x="200" y="431.591">startDexOverride</text><polygon fill="#A80036" points="723.2,479.6438,731.2,482.8438,723.2,486.0438,726.4,482.8438" style="stroke: #A80036; stroke-width: 0.800000011920929;"/><line style="stroke: #A80036; stroke-width: 0.800000011920929;" x1="194.4" x2="728" y1="482.8438" y2="482.8438"/><text fill="#000000" font-family="sans-serif" font-size="10.4" lengthAdjust="spacingAndGlyphs" textLength="57.6" x="200" y="478.8973">hookNative</text><polygon fill="#A80036" points="800,526.95,808,530.15,800,533.35,803.2,530.15" style="stroke: #A80036; stroke-width: 0.800000011920929;"/><line style="stroke: #A80036; stroke-width: 0.800000011920929;" x1="194.4" x2="804.8" y1="530.15" y2="530.15"/><text fill="#000000" font-family="sans-serif" font-size="10.4" lengthAdjust="spacingAndGlyphs" textLength="52" x="200" y="526.2035">fixCamera</text><line style="stroke: #A80036; stroke-width: 0.800000011920929;" x1="198.4" x2="232" y1="577.5625" y2="577.5625"/><line style="stroke: #A80036; stroke-width: 0.800000011920929;" x1="232" x2="232" y1="577.5625" y2="587.9625"/><line style="stroke: #A80036; stroke-width: 0.800000011920929;" x1="199.2" x2="232" y1="587.9625" y2="587.9625"/><polygon fill="#A80036" points="207.2,584.7625,199.2,587.9625,207.2,591.1625,204,587.9625" style="stroke: #A80036; stroke-width: 0.800000011920929;"/><text fill="#000000" font-family="sans-serif" font-size="10.4" lengthAdjust="spacingAndGlyphs" textLength="117.6" x="204" y="573.5098">installContentProviders</text><polygon fill="#A80036" points="900.4,631.9625,908.4,635.1625,900.4,638.3625,903.6,635.1625" style="stroke: #A80036; stroke-width: 0.800000011920929;"/><line style="stroke: #A80036; stroke-width: 0.800000011920929;" x1="194.4" x2="905.2" y1="635.1625" y2="635.1625"/><text fill="#000000" font-family="sans-serif" font-size="10.4" lengthAdjust="spacingAndGlyphs" textLength="121.6" x="200" y="631.216">callApplicationOnCreate</text><polygon fill="#A80036" points="1017.6,679.2688,1025.6,682.4688,1017.6,685.6688,1020.8,682.4688" style="stroke: #A80036; stroke-width: 0.800000011920929;"/><line style="stroke: #A80036; stroke-width: 0.800000011920929;" x1="194.4" x2="1022.4" y1="682.4688" y2="682.4688"/><text fill="#000000" font-family="sans-serif" font-size="10.4" lengthAdjust="spacingAndGlyphs" textLength="77.6" x="200" y="678.5223">queryReceivers</text><polygon fill="#A80036" points="1162.4,726.575,1170.4,729.775,1162.4,732.975,1165.6,729.775" style="stroke: #A80036; stroke-width: 0.800000011920929;"/><line style="stroke: #A80036; stroke-width: 0.800000011920929;" x1="1031.2" x2="1167.2" y1="729.775" y2="729.775"/><text fill="#000000" font-family="sans-serif" font-size="10.4" lengthAdjust="spacingAndGlyphs" textLength="77.6" x="1036.8" y="725.8285">queryReceivers</text><line style="stroke: #A80036; stroke-width: 0.800000011920929;" x1="198.4" x2="232" y1="777.1875" y2="777.1875"/><line style="stroke: #A80036; stroke-width: 0.800000011920929;" x1="232" x2="232" y1="777.1875" y2="787.5875"/><line style="stroke: #A80036; stroke-width: 0.800000011920929;" x1="199.2" x2="232" y1="787.5875" y2="787.5875"/><polygon fill="#A80036" points="207.2,784.3875,199.2,787.5875,207.2,790.7875,204,787.5875" style="stroke: #A80036; stroke-width: 0.800000011920929;"/><text fill="#000000" font-family="sans-serif" font-size="10.4" lengthAdjust="spacingAndGlyphs" textLength="78.4" x="204" y="773.1348">installReceivers</text><polygon fill="#A80036" points="313.6,831.5875,321.6,834.7875,313.6,837.9875,316.8,834.7875" style="stroke: #A80036; stroke-width: 0.800000011920929;"/><line style="stroke: #A80036; stroke-width: 0.800000011920929;" x1="194.4" x2="318.4" y1="834.7875" y2="834.7875"/><text fill="#000000" font-family="sans-serif" font-size="10.4" lengthAdjust="spacingAndGlyphs" textLength="96" x="200" y="830.841">appDoneExecuting</text><polygon fill="#A80036" points="448.8,878.8938,456.8,882.0938,448.8,885.2938,452,882.0938" style="stroke: #A80036; stroke-width: 0.800000011920929;"/><line style="stroke: #A80036; stroke-width: 0.800000011920929;" x1="327.2" x2="453.6" y1="882.0938" y2="882.0938"/><text fill="#000000" font-family="sans-serif" font-size="10.4" lengthAdjust="spacingAndGlyphs" textLength="96" x="332.8" y="878.1473">appDoneExecuting</text></g></svg>